<?xml version="1.0" encoding="utf-8"?>
<!-- Generator: Adobe Illustrator 25.0.1, SVG Export Plug-In . SVG Version: 6.00 Build 0)  -->
<svg version="1.1" id="Capa_1" xmlns="http://www.w3.org/2000/svg" xmlns:xlink="http://www.w3.org/1999/xlink" x="0px" y="0px"
	 viewBox="0 0 318.2 321.2" style="enable-background:new 0 0 318.2 321.2;" xml:space="preserve">
<style type="text/css">
	.st0{fill:#FF9100;}
</style>
<g transform="translate(0.000000,333.000000) scale(0.100000,-0.100000)">
	<path class="st0" d="M1567.1,3233.1c-8-29-26-100-41-158s-40-157-56-220s-32-128-35-145c-3-16-10-38-15-47c-5-10-8-18-5-18
		s0-15-5-32c-6-18-12-41-15-50c-2-10-6-26-8-35c-3-10-10-34-15-53c-6-19-11-36-11-37c0-2,104-3,230-3c127,0,230,1,230,3
		c0,1-5,18-11,37c-5,19-12,43-15,53c-2,9-6,25-8,35c-3,9-9,32-15,50c-5,17-8,32-5,32s0,8-5,18c-5,9-12,31-15,47c-3,17-19,82-35,145
		s-41,162-56,220c-41,163-56,210-65,210C1586.1,3285.1,1576.1,3261.1,1567.1,3233.1z"/>
	<path class="st0" d="M641.1,2671.1c0-13,54-122,63-128c7-4,9-8,5-8c-10,0,52-133,66-142c6-4,8-8,4-8c-10,0,52-133,66-142
		c6-4,7-8,3-8s3-20,17-44c13-24,22-47,19-50c-4-3-1-6,6-6s10-4,6-9c-3-5,1-16,9-24s13-17,10-20c-3-2,1-7,9-10c9-3,73,54,170,151
		c122,123,154,160,147,172c-5,8-10,11-10,7c0-5-7-1-16,7c-8,9-20,14-25,11c-5-4-9-1-9,6s-3,10-6,6c-3-3-26,6-50,19
		c-24,14-44,21-44,17s-4-3-8,3c-9,14-142,76-142,66c0-4-4-2-8,4c-9,14-142,76-142,66c0-4-4-2-8,5c-4,6-33,23-66,37
		C647.1,2676.1,641.1,2678.1,641.1,2671.1z"/>
	<path class="st0" d="M2471.1,2648.1c-30-13-58-30-62-36c-4-7-8-9-8-5c0,10-133-52-142-66c-4-6-8-8-8-4c0,10-133-52-142-66
		c-4-6-8-7-8-3s-20-3-44-17c-24-13-47-22-50-19c-3,4-6,1-6-6s-4-10-9-6c-5,3-16-1-24-9s-17-13-20-10c-2,3-7-1-10-9
		c-3-9,54-73,151-170c123-122,160-154,172-147c8,5,11,10,7,10c-5,0-1,7,7,16c9,8,14,20,11,25c-4,5-1,9,6,9s10,3,6,6c-3,3,6,26,19,50
		c14,24,21,44,17,44s-3,4,3,8c14,9,76,142,66,142c-4,0-2,4,4,8c14,9,76,142,66,142c-4,0-2,4,5,8c9,6,63,115,63,128
		C2541.1,2678.1,2526.1,2673.1,2471.1,2648.1z"/>
	<path class="st0" d="M2194.1,1905.1c-4,8-7,17-8,20s-5,14-9,25c-4,11-12,32-18,48c-6,15-15,27-20,27s-7,4-4,9c3,4-3,16-14,26
		s-20,22-20,27c0,17-52,77-63,75c-7-1-11,3-10,10c2,11-58,63-75,63c-5,0-16,8-26,19c-16,18-65,42-136,66c-3,1-12,5-20,8
		c-41,17-252,32-265,19c-3-3-22-7-43-9c-20-1-44-6-52-10c-8-3-17-7-20-8s-14-5-25-9c-11-4-32-12-47-18c-16-6-28-15-28-20s-4-7-9-4
		c-4,3-16-3-26-14s-22-20-27-20c-17,0-77-52-75-63c1-7-3-11-10-10c-11,2-63-58-63-75c0-5-9-17-20-27s-17-22-14-26c3-5,1-9-4-9
		s-14-12-20-27c-6-16-14-37-18-48c-4-11-8-22-9-25s-4-12-8-20c-27-67-27-293,0-360c4-8,7-17,8-20s5-14,9-25c4-11,12-32,18-47
		c6-16,15-28,20-28s7-4,4-9c-3-4,3-16,14-26s20-22,20-27c0-17,52-77,63-75c7,1,11-3,10-10c-2-11,58-63,75-63c5,0,17-9,27-20
		s22-17,26-14c5,3,9,1,9-4s12-14,28-20c15-6,36-14,47-18c11-4,22-8,25-9s12-5,20-8c8-4,31-8,50-10s40-5,45-9c22-13,222,2,265,19
		c8,4,17,7,20,8c71,24,120,48,136,66c10,11,21,19,26,19c17,0,77,52,75,63c-1,7,3,11,10,10c11-2,63,58,63,75c0,5,9,17,20,27
		s17,22,14,26c-3,5-1,9,4,9s14,12,20,28c6,15,14,36,18,47c4,11,8,22,9,25s4,12,8,20C2221.1,1612.1,2221.1,1838.1,2194.1,1905.1z
		 M1257.1,1541.1c-4,15-16,45-26,67c-11,22-17,44-14,49c3,5,2,17-2,26c-11,26-12,65-1,79c5,7,7,19,4,27c-3,8,3,32,13,53
		c10,22,22,52,26,67c8,35,115,142,150,150c15,4,45,16,67,26c21,10,45,16,52,14c8-3,21-2,30,3c19,11,56,11,73,0c7-5,19-6,27-3
		c7,2,31-4,52-14c22-10,52-22,67-26c33-8,141-114,150-147c3-13,13-41,23-63c31-72,31-176,0-248c-10-22-20-50-23-63
		c-9-33-117-139-150-147c-15-4-45-16-67-26c-21-10-45-16-53-13c-8,3-20,1-27-5c-6-5-25-8-42-5c-16,3-41,6-55,7c-14,1-43,10-64,19
		c-22,10-50,20-63,23C1371.1,1400.1,1265.1,1508.1,1257.1,1541.1z"/>
	<path class="st0" d="M1492.1,1902.1c-63-32-94-85-97-168c-5-127,62-201,187-205c127-5,201,62,205,187c5,127-62,201-187,205
		C1549.1,1923.1,1525.1,1919.1,1492.1,1902.1z"/>
	<path class="st0" d="M836.1,1944.1c-28-9-41-13-82-23c-10-3-33-9-50-15c-18-5-33-8-33-5s-8,0-17-5c-10-5-31-12-48-15
		c-28-5-181-43-453-114c-62-16-115-32-119-36c-15-14-22-12,387-117c85-22,169-42,185-45c17-3,38-10,48-15c9-5,17-8,17-5s15,0,33-5
		c17-6,40-12,50-15c9-2,25-6,35-8c9-3,33-10,52-15c19-6,36-11,37-11c2,0,3,104,3,230c0,127-3,230-7,229
		C869.1,1954.1,853.1,1949.1,836.1,1944.1z"/>
	<path class="st0" d="M2301.1,1725.1c0-126,1-230,3-230c1,0,18,5,37,11c19,5,43,12,53,15c9,2,25,6,35,8c9,3,32,9,50,15
		c17,5,32,8,32,5s8,0,18,5c9,5,31,12,47,15c28,5,181,43,453,114c62,16,115,32,119,36c15,14,22,12-387,117c-85,22-168,42-185,45
		c-16,3-38,10-47,15c-10,5-18,8-18,5s-15,0-32,5c-18,6-41,12-50,15c-10,2-26,6-35,8c-10,3-34,10-53,15c-19,6-36,11-37,11
		C2302.1,1955.1,2301.1,1852.1,2301.1,1725.1z"/>
	<path class="st0" d="M921.1,1375.1c-8-5-11-10-7-10c5,0,1-7-7-16c-9-8-14-20-11-25c4-5,1-9-6-9s-10-3-6-6c3-3-6-26-19-50
		c-14-24-21-44-17-44s3-4-3-8c-14-9-76-142-66-142c4,0,2-4-4-8c-14-9-76-142-66-142c4,0,2-4-5-8c-12-8-66-123-60-129s121,48,129,60
		c4,7,8,9,8,5c0-10,133,52,142,66c4,6,8,8,8,4c0-10,133,52,142,66c4,6,8,7,8,3s20,3,44,17c24,13,47,22,50,19c3-4,6-1,6,6s4,10,9,6
		c5-3,16,1,24,9s17,13,20,10c2-3,7,1,10,9c3,9-54,73-151,170C970.1,1350.1,933.1,1382.1,921.1,1375.1z"/>
	<path class="st0" d="M2088.1,1227.1c-122-123-154-160-147-172c5-8,10-11,10-7c0,5,7,1,16-7c8-9,20-14,25-11c5,4,9,1,9-6s3-10,6-6
		c3,3,26-6,50-19c24-14,44-21,44-17s4,3,8-3c9-14,142-76,142-66c0,4,4,2,8-4c9-14,142-76,142-66c0,4,4,2,8-5c8-12,123-66,129-60
		s-48,121-60,129c-7,4-9,8-5,8c10,0-52,133-66,142c-6,4-8,8-4,8c10,0-52,133-66,142c-6,4-7,8-3,8s-3,20-17,44c-13,24-22,47-19,50
		c4,3,1,6-6,6s-10,4-6,9c3,5-1,16-9,24s-13,17-10,20c3,2-1,7-9,10C2249.1,1381.1,2185.1,1324.1,2088.1,1227.1z"/>
	<path class="st0" d="M1361.1,1012.1c0-1,5-18,11-37c5-19,12-43,15-52c2-10,6-26,8-35c3-10,9-33,15-50c5-18,8-33,5-33s0-8,5-17
		c5-10,12-31,15-48c3-16,23-100,45-185c105-409,103-402,117-387c4,4,20,57,36,119c71,272,109,425,114,453c3,17,10,38,15,48
		c5,9,8,17,5,17s0,15,5,33c6,17,12,40,15,50c2,9,6,25,8,35c3,9,10,33,15,52c6,19,11,36,11,37c0,2-103,3-230,3
		C1465.1,1015.1,1361.1,1014.1,1361.1,1012.1z"/>
</g>
</svg>
